<svg width="512" height="512" viewBox="0 0 512 512" fill="none" xmlns="http://www.w3.org/2000/svg">
<path fill-rule="evenodd" clip-rule="evenodd" d="M158.795 52.2667C158.795 47.5538 162.621 43.7333 167.341 43.7333H343.591C348.31 43.7333 352.136 47.5538 352.136 52.2667V228.267C352.136 232.98 348.31 236.8 343.591 236.8H167.341C162.621 236.8 158.795 232.98 158.795 228.267V52.2667ZM175.886 219.733V60.8H335.045V219.733H175.886Z" fill="white"/>
<path fill-rule="evenodd" clip-rule="evenodd" d="M167.341 275.2C162.621 275.2 158.795 279.021 158.795 283.733V459.733C158.795 464.446 162.621 468.267 167.341 468.267H343.591C348.31 468.267 352.136 464.446 352.136 459.733V283.733C352.136 279.021 348.31 275.2 343.591 275.2H167.341ZM175.886 292.267V451.2H335.045V292.267H175.886Z" fill="white"/>
<path d="M373.5 256.533C373.5 265.075 366.566 272 358.011 272C352.389 272 347.467 269.009 344.753 264.533H326.5C321.78 264.533 317.955 260.713 317.955 256C317.955 251.287 321.78 247.467 326.5 247.467H345.462C348.276 243.589 352.849 241.067 358.011 241.067C366.566 241.067 373.5 247.991 373.5 256.533Z" fill="white"/>
<path fill-rule="evenodd" clip-rule="evenodd" d="M115 8.53333C115 3.82051 118.826 0 123.545 0H388.455C393.174 0 397 3.82051 397 8.53333V503.467C397 508.18 393.174 512 388.455 512H123.545C118.826 512 115 508.18 115 503.467V8.53333ZM132.091 494.933V17.0667H379.909V494.933H132.091Z" fill="white"/>
</svg>
