<svg width="512" height="512" viewBox="0 0 512 512" fill="none" xmlns="http://www.w3.org/2000/svg">
<mask id="path-1-outside-1_108_42" maskUnits="userSpaceOnUse" x="28" y="196" width="456" height="120" fill="black">
<rect fill="white" x="28" y="196" width="456" height="120"/>
<path d="M132 256C132 280.301 112.301 300 88 300C63.6995 300 44 280.301 44 256C44 231.699 63.6995 212 88 212C112.301 212 132 231.699 132 256Z"/>
<path d="M300 256C300 280.301 280.301 300 256 300C231.699 300 212 280.301 212 256C212 231.699 231.699 212 256 212C280.301 212 300 231.699 300 256Z"/>
<path d="M468 256C468 280.301 448.301 300 424 300C399.699 300 380 280.301 380 256C380 231.699 399.699 212 424 212C448.301 212 468 231.699 468 256Z"/>
</mask>
<path d="M116 256C116 271.464 103.464 284 88 284V316C121.137 316 148 289.137 148 256H116ZM88 284C72.536 284 60 271.464 60 256H28C28 289.137 54.8629 316 88 316V284ZM60 256C60 240.536 72.536 228 88 228V196C54.8629 196 28 222.863 28 256H60ZM88 228C103.464 228 116 240.536 116 256H148C148 222.863 121.137 196 88 196V228ZM284 256C284 271.464 271.464 284 256 284V316C289.137 316 316 289.137 316 256H284ZM256 284C240.536 284 228 271.464 228 256H196C196 289.137 222.863 316 256 316V284ZM228 256C228 240.536 240.536 228 256 228V196C222.863 196 196 222.863 196 256H228ZM256 228C271.464 228 284 240.536 284 256H316C316 222.863 289.137 196 256 196V228ZM452 256C452 271.464 439.464 284 424 284V316C457.137 316 484 289.137 484 256H452ZM424 284C408.536 284 396 271.464 396 256H364C364 289.137 390.863 316 424 316V284ZM396 256C396 240.536 408.536 228 424 228V196C390.863 196 364 222.863 364 256H396ZM424 228C439.464 228 452 240.536 452 256H484C484 222.863 457.137 196 424 196V228Z" fill="white" mask="url(#path-1-outside-1_108_42)"/>
</svg>
