<svg width="512" height="512" viewBox="0 0 512 512" fill="none" xmlns="http://www.w3.org/2000/svg">
<path fill-rule="evenodd" clip-rule="evenodd" d="M400.162 0.0520327C402.216 0.285619 404 1.27662 405.268 2.71479C406.705 3.98221 407.696 5.76664 407.93 7.82125C411.311 37.5684 416.387 54.7179 425.415 65.6698C433.783 75.82 446.593 81.856 469.049 86.1646C469.228 86.1326 469.407 86.1007 469.586 86.0689C473.945 85.2966 478.104 88.2043 478.876 92.5633C478.98 93.1541 479.017 93.7412 478.993 94.3168C479.017 94.8923 478.98 95.4794 478.876 96.0702C478.104 100.429 473.945 103.337 469.586 102.565C469.407 102.533 469.228 102.501 469.049 102.469C446.593 106.778 433.783 112.813 425.415 122.964C416.387 133.916 411.311 151.065 407.93 180.812C407.437 185.146 403.576 188.277 399.257 187.891C394.937 188.277 391.076 185.146 390.583 180.812C387.202 151.065 382.126 133.916 373.098 122.964C364.325 112.322 350.668 106.202 326.131 101.854C321.772 101.082 318.865 96.9224 319.637 92.5633C320.327 88.6714 323.716 85.9365 327.536 85.9446C351.637 81.6046 365.118 75.5007 373.808 64.9595C382.836 54.0076 387.912 36.8581 391.294 7.11097C391.793 2.71238 395.764 -0.448016 400.162 0.0520327ZM386.175 75.1578C391.99 68.1038 396.257 59.5834 399.5 49.3738C402.77 59.8992 407.099 68.6512 413.048 75.8681C419.868 84.1418 428.455 89.9818 438.998 94.3167C428.455 98.6517 419.868 104.492 413.048 112.765C406.95 120.163 402.554 129.173 399.257 140.053C395.959 129.173 391.563 120.163 385.465 112.765C378.532 104.355 369.774 98.4596 358.992 94.1034C370.1 89.7202 379.091 83.7519 386.175 75.1578Z" fill="white"/>
<path d="M33 59.1155C33 45.8347 43.7644 35.0685 57.0431 35.0685H357.581C362.007 35.0685 365.596 38.6572 365.596 43.0841C365.596 47.5111 362.007 51.0998 357.581 51.0998H57.0431C52.6169 51.0998 49.0287 54.6885 49.0287 59.1155V487.953C49.0287 492.38 52.6168 495.969 57.0431 495.969H399.657C404.083 495.969 407.671 492.38 407.671 487.953V213.417C407.671 208.99 411.259 205.401 415.685 205.401C420.112 205.401 423.7 208.99 423.7 213.417V487.953C423.7 501.234 412.935 512 399.657 512H57.0431C43.7645 512 33 501.234 33 487.953V59.1155Z" fill="white"/>
<path d="M292.622 313.77C295.752 310.639 295.752 305.564 292.622 302.434C289.492 299.304 284.418 299.304 281.288 302.434L255.241 328.485C252.111 331.615 252.111 336.69 255.241 339.821C258.371 342.951 263.445 342.951 266.575 339.821L292.622 313.77Z" fill="white"/>
<path d="M337.202 313.77C340.331 310.639 340.331 305.564 337.202 302.434C334.072 299.304 328.997 299.304 325.868 302.434L255.241 373.072C252.111 376.202 252.111 381.277 255.241 384.408C258.371 387.538 263.445 387.538 266.575 384.408L337.202 313.77Z" fill="white"/>
<path d="M139.848 117.386C142.978 114.256 142.978 109.181 139.848 106.05C136.718 102.92 131.644 102.92 128.514 106.05L102.968 131.6C99.8386 134.73 99.8386 139.806 102.968 142.936C106.098 146.066 111.173 146.066 114.302 142.936L139.848 117.386Z" fill="white"/>
<path d="M183.426 117.386C186.556 114.256 186.556 109.181 183.426 106.05C180.296 102.92 175.222 102.92 172.092 106.05L102.968 175.185C99.8386 178.316 99.8386 183.391 102.968 186.521C106.098 189.651 111.173 189.651 114.302 186.521L183.426 117.386Z" fill="white"/>
<path fill-rule="evenodd" clip-rule="evenodd" d="M66.5601 81.1585C66.5601 74.5181 71.9423 69.135 78.5816 69.135H297.474C301.9 69.135 305.488 72.7238 305.488 77.1507C305.488 81.5776 301.9 85.1663 297.474 85.1663H236.364V266.02H374.111V213.417C374.111 208.99 377.699 205.401 382.125 205.401C386.551 205.401 390.14 208.99 390.14 213.417V466.912C390.14 473.552 384.757 478.935 378.118 478.935H78.5816C71.9423 478.935 66.5601 473.552 66.5601 466.912V81.1585ZM374.111 282.051H236.364V462.904H374.111V282.051ZM220.335 462.904V282.051H82.5888V462.904H220.335ZM82.5888 266.02H220.335V85.1663H82.5888V266.02Z" fill="white"/>
<path fill-rule="evenodd" clip-rule="evenodd" d="M310.899 122.338C309.639 120.959 307.894 120.013 305.892 119.785C301.494 119.285 297.524 122.445 297.024 126.844C294.643 147.79 291.108 159.262 285.216 166.41C279.654 173.157 270.89 177.324 254.177 180.354C250.45 180.452 247.181 183.155 246.505 186.97C245.733 191.329 248.64 195.488 252.998 196.261C270.153 199.3 279.078 203.488 284.715 210.326C290.607 217.474 294.142 228.946 296.523 249.892C297.008 254.155 300.753 257.255 304.987 256.986C309.222 257.255 312.966 254.155 313.451 249.892C315.832 228.946 319.367 217.474 325.259 210.326C330.587 203.863 338.854 199.767 354.231 196.771C358.571 197.511 362.7 194.609 363.469 190.267C363.567 189.712 363.606 189.16 363.59 188.618C363.606 188.076 363.567 187.525 363.469 186.97C362.7 182.628 358.571 179.726 354.231 180.466C338.854 177.47 330.587 173.374 325.259 166.911C319.367 159.763 315.832 148.291 313.451 127.345C313.224 125.343 312.277 123.598 310.899 122.338ZM305.133 163.852C303.115 168.649 300.647 172.891 297.583 176.608C293.382 181.704 288.309 185.531 282.352 188.494C288.093 191.421 293 195.176 297.082 200.128C300.328 204.066 302.905 208.592 304.987 213.744C307.069 208.592 309.646 204.066 312.892 200.128C316.917 195.246 321.743 191.527 327.38 188.618C321.743 185.71 316.917 181.991 312.892 177.109C309.722 173.263 307.189 168.855 305.133 163.852Z" fill="white"/>
</svg>
