<svg width="512" height="217" viewBox="0 0 512 217" fill="none" xmlns="http://www.w3.org/2000/svg">
<path d="M112.174 169.887C105.428 169.887 98.9402 168.807 92.7124 166.648C86.571 164.49 81.8136 161.64 78.4402 158.099L82.2029 150.716C85.4898 153.998 89.858 156.675 95.3073 158.747C100.757 160.733 106.379 161.726 112.174 161.726C120.305 161.726 126.403 160.258 130.469 157.322C134.534 154.3 136.567 150.414 136.567 145.665C136.567 142.038 135.442 139.145 133.193 136.986C131.031 134.827 128.35 133.186 125.149 132.064C121.949 130.855 117.494 129.56 111.785 128.178C104.952 126.451 99.5025 124.81 95.4371 123.256C91.3717 121.615 87.8685 119.154 84.9276 115.872C82.0731 112.591 80.6459 108.144 80.6459 102.531C80.6459 97.954 81.8569 93.809 84.2788 90.0958C86.7008 86.2963 90.4202 83.2739 95.4371 81.0287C100.454 78.7835 106.682 77.6609 114.121 77.6609C119.311 77.6609 124.371 78.3949 129.301 79.8629C134.318 81.2446 138.643 83.1875 142.276 85.6918L139.032 93.3341C135.226 90.8298 131.161 88.9732 126.836 87.7643C122.511 86.469 118.273 85.8213 114.121 85.8213C106.163 85.8213 100.151 87.3757 96.0858 90.4844C92.1069 93.5068 90.1175 97.4359 90.1175 102.272C90.1175 105.899 91.1987 108.835 93.3611 111.08C95.6101 113.239 98.378 114.923 101.665 116.132C105.038 117.254 109.536 118.506 115.159 119.888C121.819 121.529 127.182 123.169 131.247 124.81C135.399 126.364 138.902 128.782 141.757 132.064C144.611 135.259 146.038 139.62 146.038 145.146C146.038 149.723 144.784 153.911 142.276 157.711C139.854 161.424 136.091 164.403 130.988 166.648C125.884 168.807 119.613 169.887 112.174 169.887Z" fill="white"/>
<path d="M165.012 100.976H174.224V169.11H165.012V100.976ZM169.683 86.0804C167.78 86.0804 166.18 85.4327 164.882 84.1374C163.585 82.8421 162.936 81.2877 162.936 79.4743C162.936 77.7472 163.585 76.236 164.882 74.9407C166.18 73.6454 167.78 72.9978 169.683 72.9978C171.586 72.9978 173.186 73.6454 174.483 74.9407C175.781 76.1497 176.43 77.6177 176.43 79.3448C176.43 81.2446 175.781 82.8421 174.483 84.1374C173.186 85.4327 171.586 86.0804 169.683 86.0804Z" fill="white"/>
<path d="M208.679 114.318C210.841 109.741 214.042 106.287 218.28 103.956C222.605 101.624 227.925 100.458 234.239 100.458V109.396L232.033 109.266C224.854 109.266 219.232 111.468 215.166 115.872C211.101 120.276 209.068 126.451 209.068 134.395V169.11H199.856V100.976H208.679V114.318Z" fill="white"/>
<path d="M250.919 100.976H260.131V169.11H250.919V100.976ZM255.589 86.0804C253.687 86.0804 252.086 85.4327 250.789 84.1374C249.491 82.8421 248.843 81.2877 248.843 79.4743C248.843 77.7472 249.491 76.236 250.789 74.9407C252.086 73.6454 253.687 72.9978 255.589 72.9978C257.492 72.9978 259.093 73.6454 260.39 74.9407C261.688 76.1497 262.336 77.6177 262.336 79.3448C262.336 81.2446 261.688 82.8421 260.39 84.1374C259.093 85.4327 257.492 86.0804 255.589 86.0804Z" fill="white"/>
<path d="M347.263 100.976V169.11H338.44V156.675C336.018 160.82 332.688 164.058 328.45 166.389C324.211 168.635 319.367 169.757 313.918 169.757C305.009 169.757 297.959 167.296 292.769 162.374C287.666 157.365 285.114 150.069 285.114 140.483V100.976H294.326V139.577C294.326 146.744 296.099 152.184 299.646 155.897C303.192 159.611 308.252 161.467 314.826 161.467C322.005 161.467 327.671 159.308 331.823 154.991C335.975 150.587 338.051 144.499 338.051 136.727V100.976H347.263Z" fill="white"/>
<path d="M397.643 169.887C390.896 169.887 384.409 168.807 378.181 166.648C372.04 164.49 367.282 161.64 363.909 158.099L367.672 150.716C370.959 153.998 375.327 156.675 380.776 158.747C386.225 160.733 391.848 161.726 397.643 161.726C405.774 161.726 411.872 160.258 415.937 157.322C420.003 154.3 422.036 150.414 422.036 145.665C422.036 142.038 420.911 139.145 418.662 136.986C416.5 134.827 413.818 133.186 410.618 132.064C407.417 130.855 402.963 129.56 397.254 128.178C390.421 126.451 384.971 124.81 380.906 123.256C376.84 121.615 373.337 119.154 370.396 115.872C367.542 112.591 366.115 108.144 366.115 102.531C366.115 97.954 367.326 93.809 369.748 90.0958C372.169 86.2963 375.889 83.2739 380.906 81.0287C385.923 78.7835 392.151 77.6609 399.589 77.6609C404.779 77.6609 409.839 78.3949 414.77 79.8629C419.787 81.2446 424.112 83.1875 427.744 85.6918L424.501 93.3341C420.695 90.8298 416.63 88.9732 412.305 87.7643C407.98 86.469 403.741 85.8213 399.589 85.8213C391.632 85.8213 385.62 87.3757 381.555 90.4844C377.576 93.5068 375.586 97.4359 375.586 102.272C375.586 105.899 376.667 108.835 378.83 111.08C381.079 113.239 383.847 114.923 387.134 116.132C390.507 117.254 395.005 118.506 400.627 119.888C407.288 121.529 412.651 123.169 416.716 124.81C420.868 126.364 424.371 128.782 427.226 132.064C430.08 135.259 431.507 139.62 431.507 145.146C431.507 149.723 430.253 153.911 427.744 157.711C425.323 161.424 421.56 164.403 416.456 166.648C411.353 168.807 405.082 169.887 397.643 169.887Z" fill="white"/>
<path fill-rule="evenodd" clip-rule="evenodd" d="M58.1764 20.6539C55.4596 14.1058 54.0612 7.08759 54.0612 0C54.0612 7.0876 52.6629 14.1058 49.9461 20.6539C47.2292 27.2019 43.2471 33.1517 38.2271 38.1634C33.207 43.1751 27.2474 47.1505 20.6883 49.8628C14.1293 52.5751 7.09942 53.9711 0 53.9711C7.09943 53.9711 14.1293 55.3672 20.6883 58.0795C27.2474 60.7918 33.207 64.7673 38.2271 69.7789C43.2471 74.7906 47.2293 80.7404 49.9461 87.2884C52.6629 93.8365 54.0612 100.855 54.0612 107.942C54.0612 100.855 55.4596 93.8365 58.1764 87.2884C60.8933 80.7403 64.8754 74.7906 69.8954 69.7789C74.9155 64.7672 80.8752 60.7918 87.4342 58.0795C93.9932 55.3671 101.023 53.9711 108.122 53.9711C101.023 53.9711 93.9932 52.5751 87.4342 49.8628C80.8751 47.1505 74.9155 43.1751 69.8954 38.1634C64.8754 33.1517 60.8932 27.2019 58.1764 20.6539Z" fill="white"/>
<path d="M173.962 217C171.771 217 169.796 216.511 168.037 215.532C166.278 214.525 164.894 213.143 163.885 211.387C162.876 209.631 162.371 207.645 162.371 205.429C162.371 203.212 162.876 201.226 163.885 199.47C164.894 197.714 166.278 196.347 168.037 195.368C169.796 194.39 171.771 193.9 173.962 193.9C176.153 193.9 178.128 194.39 179.887 195.368C181.646 196.347 183.015 197.714 183.996 199.47C185.005 201.226 185.509 203.212 185.509 205.429C185.509 207.645 185.005 209.631 183.996 211.387C183.015 213.143 181.646 214.525 179.887 215.532C178.128 216.511 176.153 217 173.962 217ZM173.962 214.28C175.577 214.28 177.018 213.92 178.287 213.2C179.584 212.452 180.593 211.401 181.314 210.048C182.035 208.696 182.395 207.156 182.395 205.429C182.395 203.702 182.035 202.162 181.314 200.809C180.593 199.456 179.584 198.42 178.287 197.7C177.018 196.952 175.577 196.577 173.962 196.577C172.347 196.577 170.891 196.952 169.594 197.7C168.325 198.42 167.316 199.456 166.566 200.809C165.845 202.162 165.485 203.702 165.485 205.429C165.485 207.156 165.845 208.696 166.566 210.048C167.316 211.401 168.325 212.452 169.594 213.2C170.891 213.92 172.347 214.28 173.962 214.28Z" fill="white"/>
<path d="M200.212 205.385L194.849 210.308V216.784H191.778V184.747H194.849V206.465L208.429 194.073H212.235L202.504 203.356L213.143 216.784H209.381L200.212 205.385Z" fill="white"/>
<path d="M229.006 193.9C231.86 193.9 234.124 194.735 235.796 196.405C237.497 198.045 238.348 200.449 238.348 203.615V216.784H235.277V203.917C235.277 201.557 234.686 199.758 233.504 198.52C232.322 197.283 230.635 196.664 228.444 196.664C225.993 196.664 224.047 197.398 222.605 198.866C221.192 200.305 220.486 202.305 220.486 204.867V216.784H217.415V194.073H220.356V198.261C221.192 196.88 222.346 195.815 223.816 195.066C225.315 194.289 227.045 193.9 229.006 193.9Z" fill="white"/>
<path d="M254.642 193.9C257.612 193.9 259.89 194.649 261.476 196.146C263.061 197.614 263.854 199.801 263.854 202.708V216.784H260.913V213.244C260.221 214.424 259.198 215.345 257.843 216.007C256.516 216.669 254.931 217 253.085 217C250.548 217 248.53 216.395 247.03 215.187C245.531 213.978 244.781 212.38 244.781 210.394C244.781 208.465 245.473 206.911 246.857 205.731C248.27 204.551 250.505 203.961 253.561 203.961H260.784V202.579C260.784 200.622 260.236 199.139 259.14 198.132C258.044 197.095 256.444 196.577 254.339 196.577C252.898 196.577 251.514 196.822 250.188 197.311C248.861 197.772 247.722 198.42 246.771 199.254L245.387 196.966C246.54 195.987 247.924 195.239 249.539 194.721C251.153 194.174 252.855 193.9 254.642 193.9ZM253.561 214.582C255.291 214.582 256.776 214.193 258.016 213.416C259.255 212.61 260.178 211.459 260.784 209.962V206.249H253.648C249.755 206.249 247.809 207.602 247.809 210.308C247.809 211.632 248.313 212.682 249.323 213.459C250.332 214.208 251.745 214.582 253.561 214.582ZM257.843 185.179H261.951L254.945 190.533H251.918L257.843 185.179Z" fill="white"/>
<path d="M291.471 193.9C294.441 193.9 296.719 194.649 298.305 196.146C299.891 197.614 300.684 199.801 300.684 202.708V216.784H297.743V213.244C297.051 214.424 296.027 215.345 294.672 216.007C293.346 216.669 291.76 217 289.914 217C287.377 217 285.359 216.395 283.86 215.187C282.36 213.978 281.611 212.38 281.611 210.394C281.611 208.465 282.303 206.911 283.687 205.731C285.099 204.551 287.334 203.961 290.39 203.961H297.613V202.579C297.613 200.622 297.065 199.139 295.969 198.132C294.874 197.095 293.273 196.577 291.169 196.577C289.727 196.577 288.343 196.822 287.017 197.311C285.69 197.772 284.552 198.42 283.6 199.254L282.216 196.966C283.369 195.987 284.753 195.239 286.368 194.721C287.983 194.174 289.684 193.9 291.471 193.9ZM290.39 214.582C292.12 214.582 293.605 214.193 294.845 213.416C296.085 212.61 297.007 211.459 297.613 209.962V206.249H290.477C286.584 206.249 284.638 207.602 284.638 210.308C284.638 211.632 285.143 212.682 286.152 213.459C287.161 214.208 288.574 214.582 290.39 214.582Z" fill="white"/>
<path d="M341.102 184.747V216.784H338.161V212.294C337.239 213.819 336.013 214.985 334.485 215.791C332.986 216.597 331.285 217 329.382 217C327.248 217 325.316 216.511 323.587 215.532C321.857 214.553 320.501 213.186 319.521 211.43C318.541 209.674 318.051 207.674 318.051 205.429C318.051 203.183 318.541 201.183 319.521 199.427C320.501 197.671 321.857 196.318 323.587 195.368C325.316 194.39 327.248 193.9 329.382 193.9C331.227 193.9 332.885 194.289 334.356 195.066C335.855 195.815 337.08 196.923 338.032 198.391V184.747H341.102ZM329.641 214.28C331.227 214.28 332.654 213.92 333.923 213.2C335.221 212.452 336.23 211.401 336.95 210.048C337.7 208.696 338.075 207.156 338.075 205.429C338.075 203.702 337.7 202.162 336.95 200.809C336.23 199.456 335.221 198.42 333.923 197.7C332.654 196.952 331.227 196.577 329.641 196.577C328.027 196.577 326.571 196.952 325.273 197.7C324.005 198.42 322.995 199.456 322.246 200.809C321.525 202.162 321.165 203.702 321.165 205.429C321.165 207.156 321.525 208.696 322.246 210.048C322.995 211.401 324.005 212.452 325.273 213.2C326.571 213.92 328.027 214.28 329.641 214.28Z" fill="white"/>
<path d="M368.77 194.073L358.65 216.784H355.493L345.416 194.073H348.616L357.136 213.416L365.743 194.073H368.77Z" fill="white"/>
<path d="M392.269 206.378H373.24C373.413 208.739 374.321 210.653 375.964 212.121C377.608 213.56 379.684 214.28 382.192 214.28C383.605 214.28 384.903 214.035 386.085 213.546C387.267 213.028 388.29 212.279 389.155 211.301L390.885 213.287C389.876 214.496 388.608 215.417 387.079 216.05C385.58 216.683 383.922 217 382.106 217C379.77 217 377.694 216.511 375.878 215.532C374.09 214.525 372.692 213.143 371.683 211.387C370.674 209.631 370.169 207.645 370.169 205.429C370.169 203.212 370.645 201.226 371.596 199.47C372.577 197.714 373.903 196.347 375.575 195.368C377.276 194.39 379.179 193.9 381.284 193.9C383.389 193.9 385.277 194.39 386.95 195.368C388.622 196.347 389.934 197.714 390.885 199.47C391.837 201.197 392.313 203.183 392.313 205.429L392.269 206.378ZM381.284 196.534C379.093 196.534 377.247 197.239 375.748 198.65C374.278 200.031 373.442 201.845 373.24 204.09H389.372C389.17 201.845 388.319 200.031 386.82 198.65C385.349 197.239 383.504 196.534 381.284 196.534Z" fill="white"/>
<path d="M401.504 198.52C402.224 196.995 403.291 195.843 404.704 195.066C406.146 194.289 407.919 193.9 410.024 193.9V196.88L409.288 196.836C406.895 196.836 405.021 197.57 403.666 199.038C402.311 200.506 401.633 202.565 401.633 205.213V216.784H398.563V194.073H401.504V198.52Z" fill="white"/>
<path d="M435.18 206.378H416.151C416.324 208.739 417.232 210.653 418.876 212.121C420.519 213.56 422.595 214.28 425.103 214.28C426.516 214.28 427.814 214.035 428.996 213.546C430.178 213.028 431.202 212.279 432.067 211.301L433.796 213.287C432.787 214.496 431.519 215.417 429.991 216.05C428.491 216.683 426.833 217 425.017 217C422.681 217 420.606 216.511 418.789 215.532C417.001 214.525 415.603 213.143 414.594 211.387C413.585 209.631 413.08 207.645 413.08 205.429C413.08 203.212 413.556 201.226 414.507 199.47C415.488 197.714 416.814 196.347 418.486 195.368C420.187 194.39 422.09 193.9 424.195 193.9C426.3 193.9 428.189 194.39 429.861 195.368C431.533 196.347 432.845 197.714 433.796 199.47C434.748 201.197 435.224 203.183 435.224 205.429L435.18 206.378ZM424.195 196.534C422.004 196.534 420.159 197.239 418.659 198.65C417.189 200.031 416.353 201.845 416.151 204.09H432.283C432.081 201.845 431.23 200.031 429.731 198.65C428.261 197.239 426.415 196.534 424.195 196.534Z" fill="white"/>
<path d="M452.889 166.573C451.505 166.573 450.175 166.379 448.899 165.99C447.645 165.58 446.661 165.073 445.948 164.468L446.986 162.655C447.699 163.216 448.597 163.68 449.678 164.047C450.759 164.393 451.884 164.565 453.051 164.565C454.608 164.565 455.754 164.328 456.49 163.853C457.246 163.356 457.625 162.665 457.625 161.78C457.625 161.154 457.419 160.669 457.009 160.323C456.598 159.956 456.079 159.686 455.452 159.514C454.825 159.319 453.992 159.136 452.954 158.963C451.57 158.704 450.456 158.445 449.613 158.186C448.77 157.905 448.045 157.441 447.44 156.793C446.856 156.146 446.564 155.25 446.564 154.106C446.564 152.681 447.159 151.515 448.348 150.608C449.537 149.702 451.192 149.248 453.311 149.248C454.414 149.248 455.516 149.399 456.619 149.702C457.722 149.982 458.63 150.36 459.344 150.835L458.338 152.681C456.933 151.709 455.257 151.224 453.311 151.224C451.84 151.224 450.727 151.483 449.97 152.001C449.235 152.519 448.867 153.199 448.867 154.041C448.867 154.688 449.072 155.207 449.483 155.595C449.916 155.984 450.446 156.275 451.073 156.47C451.7 156.642 452.565 156.826 453.668 157.02C455.03 157.279 456.122 157.538 456.944 157.797C457.765 158.056 458.468 158.499 459.052 159.125C459.636 159.751 459.928 160.615 459.928 161.716C459.928 163.205 459.301 164.393 458.047 165.278C456.814 166.141 455.095 166.573 452.889 166.573Z" fill="white"/>
<path d="M464.412 166.573C463.937 166.573 463.526 166.4 463.18 166.055C462.856 165.709 462.693 165.288 462.693 164.792C462.693 164.295 462.856 163.885 463.18 163.561C463.526 163.216 463.937 163.043 464.412 163.043C464.888 163.043 465.299 163.216 465.645 163.561C465.991 163.885 466.164 164.295 466.164 164.792C466.164 165.288 465.991 165.709 465.645 166.055C465.299 166.4 464.888 166.573 464.412 166.573Z" fill="white"/>
<path d="M473.265 152.713C473.806 151.569 474.606 150.705 475.665 150.123C476.747 149.54 478.076 149.248 479.655 149.248V151.483L479.104 151.45C477.309 151.45 475.903 152.001 474.887 153.102C473.87 154.203 473.362 155.746 473.362 157.732V166.411H471.059V149.378H473.265V152.713Z" fill="white"/>
<path d="M483.989 166.573C483.513 166.573 483.102 166.4 482.756 166.055C482.432 165.709 482.269 165.288 482.269 164.792C482.269 164.295 482.432 163.885 482.756 163.561C483.102 163.216 483.513 163.043 483.989 163.043C484.464 163.043 484.875 163.216 485.221 163.561C485.567 163.885 485.74 164.295 485.74 164.792C485.74 165.288 485.567 165.709 485.221 166.055C484.875 166.4 484.464 166.573 483.989 166.573Z" fill="white"/>
<path d="M497.134 166.573C495.491 166.573 494.009 166.206 492.69 165.472C491.371 164.716 490.333 163.68 489.576 162.363C488.819 161.046 488.441 159.557 488.441 157.894C488.441 156.232 488.819 154.742 489.576 153.426C490.333 152.109 491.371 151.083 492.69 150.349C494.009 149.615 495.491 149.248 497.134 149.248C498.778 149.248 500.259 149.615 501.578 150.349C502.897 151.083 503.924 152.109 504.659 153.426C505.416 154.742 505.795 156.232 505.795 157.894C505.795 159.557 505.416 161.046 504.659 162.363C503.924 163.68 502.897 164.716 501.578 165.472C500.259 166.206 498.778 166.573 497.134 166.573ZM497.134 164.533C498.345 164.533 499.426 164.263 500.378 163.723C501.351 163.162 502.108 162.374 502.648 161.359C503.189 160.345 503.459 159.19 503.459 157.894C503.459 156.599 503.189 155.444 502.648 154.429C502.108 153.415 501.351 152.638 500.378 152.098C499.426 151.537 498.345 151.256 497.134 151.256C495.923 151.256 494.831 151.537 493.858 152.098C492.907 152.638 492.15 153.415 491.587 154.429C491.047 155.444 490.776 156.599 490.776 157.894C490.776 159.19 491.047 160.345 491.587 161.359C492.15 162.374 492.907 163.162 493.858 163.723C494.831 164.263 495.923 164.533 497.134 164.533Z" fill="white"/>
<path d="M510.248 166.573C509.773 166.573 509.362 166.4 509.016 166.055C508.691 165.709 508.529 165.288 508.529 164.792C508.529 164.295 508.691 163.885 509.016 163.561C509.362 163.216 509.773 163.043 510.248 163.043C510.724 163.043 511.135 163.216 511.481 163.561C511.827 163.885 512 164.295 512 164.792C512 165.288 511.827 165.709 511.481 166.055C511.135 166.4 510.724 166.573 510.248 166.573Z" fill="white"/>
</svg>
